<?xml version="1.0" encoding="UTF-8"?>
<svg version="1.1" xmlns="http://www.w3.org/2000/svg" width="1024" height="1024">
<path d="M0 0 C0.54333984 0.41717285 1.08667969 0.8343457 1.64648438 1.26416016 C14.28792492 10.9902856 26.3190247 21.32103264 37.98046875 32.19921875 C40.63765403 34.67540371 43.34273983 37.09255678 46.0625 39.5 C53.89303397 46.52707527 61.42488577 53.94545742 68.2421875 61.96484375 C70.3526414 64.40828038 72.55292879 66.75918821 74.75 69.125 C79.57239926 74.40841771 83.97763122 79.94903146 88.3515625 85.60546875 C90.6454748 88.56740662 93.02657913 91.44463564 95.4375 94.3125 C113.96833642 116.86604469 129.09874565 142.41152919 143 168 C143.44102051 168.80679199 143.88204102 169.61358398 144.33642578 170.44482422 C183.89483746 243.10400416 202.5392215 326.05606408 202.3125 408.4375 C202.31027727 409.86626173 202.30810077 411.29502353 202.30596924 412.7237854 C202.26347689 433.28453499 201.91849334 453.60696278 199 474 C198.90054077 474.7130127 198.80108154 475.42602539 198.6986084 476.16064453 C191.88594288 524.95980701 179.21192617 572.96778374 159 618 C158.47535156 619.18851563 157.95070313 620.37703125 157.41015625 621.6015625 C139.97085482 660.06183119 117.43309805 696.10348001 91 729 C90.24976563 729.93457031 89.49953125 730.86914062 88.7265625 731.83203125 C83.067559 738.80874496 77.22867056 745.62801418 71.35546875 752.42431641 C70.14498363 753.83146175 68.94664269 755.24903306 67.75 756.66796875 C67.13125 757.39628906 66.5125 758.12460937 65.875 758.875 C65.35679687 759.49117187 64.83859375 760.10734375 64.3046875 760.7421875 C63 762 63 762 61 762 C60.73123047 762.59329102 60.46246094 763.18658203 60.18554688 763.79785156 C58.99709268 766.00540033 57.79257611 767.46542882 56.03125 769.234375 C55.46019531 769.80800781 54.88914062 770.38164063 54.30078125 770.97265625 C53.40939453 771.85244141 53.40939453 771.85244141 52.5 772.75 C51.90574219 773.35199219 51.31148437 773.95398438 50.69921875 774.57421875 C49.84263672 775.42693359 49.84263672 775.42693359 48.96875 776.296875 C48.44732422 776.81604492 47.92589844 777.33521484 47.38867188 777.87011719 C46 779 46 779 44 779 C44 779.66 44 780.32 44 781 C42.671875 782.33984375 42.671875 782.33984375 40.75 783.9375 C37.67097176 786.54951514 34.66253124 789.21448563 31.70556641 791.96435547 C25.67193063 797.57103728 19.46137676 802.88853529 13 808 C12.35289062 808.51433594 11.70578125 809.02867187 11.0390625 809.55859375 C-12.9353939 828.57130368 -38.21713348 845.19550966 -65 860 C-65.71929688 860.40025391 -66.43859375 860.80050781 -67.1796875 861.21289062 C-120.47386497 890.72579834 -180.1853565 909.02523091 -240.375 917.25 C-241.47650391 917.40114258 -242.57800781 917.55228516 -243.71289062 917.70800781 C-265.54672767 920.50835229 -287.31387283 921.37786028 -309.3125 921.3125 C-310.62427216 921.31034485 -311.93604431 921.3081897 -313.28756714 921.30596924 C-346.54280894 921.23205154 -378.38642308 918.42076945 -411 912 C-412.20446777 911.76410156 -413.40893555 911.52820313 -414.64990234 911.28515625 C-467.92869337 900.62488098 -519.47970028 880.82466613 -566.40478516 853.50634766 C-568.74432255 852.14840356 -571.09379241 850.81058556 -573.44921875 849.48046875 C-597.92187068 835.54904245 -620.82026719 818.52445658 -642 800 C-642.72960937 799.36964844 -643.45921875 798.73929688 -644.2109375 798.08984375 C-648.77059478 794.13393555 -653.24044001 790.08036356 -657.703125 786.015625 C-659.93914975 783.98573474 -659.93914975 783.98573474 -662.296875 782.359375 C-663.13992188 781.68648437 -663.13992188 781.68648437 -664 781 C-664 780.34 -664 779.68 -664 779 C-664.58934326 778.73590332 -665.17868652 778.47180664 -665.78588867 778.19970703 C-668.08447149 776.95422948 -669.58939517 775.65447786 -671.42578125 773.8046875 C-672.05395752 773.17530273 -672.68213379 772.54591797 -673.3293457 771.89746094 C-673.98378662 771.23004883 -674.63822754 770.56263672 -675.3125 769.875 C-675.98821045 769.19211914 -676.6639209 768.50923828 -677.36010742 767.80566406 C-681.15128291 763.95247371 -684.8614376 760.06347348 -688.34765625 755.9296875 C-690.41558631 753.51465807 -692.58607434 751.20434275 -694.75 748.875 C-699.49875287 743.6671532 -703.85233192 738.22300397 -708.16015625 732.6484375 C-710.03096799 730.22936232 -711.93228548 727.84147526 -713.87109375 725.4765625 C-732.50810982 702.71113292 -747.88611937 677.75869697 -762 652 C-762.5053125 651.0826709 -763.010625 650.1653418 -763.53125 649.22021484 C-791.83376919 597.52573725 -809.38857686 540.1437738 -817.8125 481.9375 C-817.91195923 481.25843597 -818.01141846 480.57937195 -818.1138916 479.87973022 C-821.49229938 456.48771174 -822.37748123 433.17405216 -822.3125 409.5625 C-822.31027727 408.13373827 -822.30810077 406.70497647 -822.30596924 405.2762146 C-822.26347689 384.71546501 -821.91849334 364.39303722 -819 344 C-818.90054077 343.2869873 -818.80108154 342.57397461 -818.6986084 341.83935547 C-809.22788108 274.00048093 -787.71306444 209.16663087 -753 150 C-752.48405273 149.1140918 -751.96810547 148.22818359 -751.43652344 147.31542969 C-744.75658006 135.86833942 -737.72745567 124.76822342 -730 114 C-729.46648926 113.25395508 -728.93297852 112.50791016 -728.38330078 111.73925781 C-720.03235599 100.10818723 -711.23381668 88.93982729 -702 78 C-701.00507346 76.80870638 -700.01027642 75.61730459 -699.015625 74.42578125 C-686.45200206 59.47684782 -673.04038118 44.60684004 -658.18359375 31.90234375 C-655.99205464 29.99307802 -653.85658184 28.02991844 -651.7265625 26.05249023 C-645.67987399 20.44414828 -639.45604732 15.13688203 -633 10 C-632.48775879 9.58814453 -631.97551758 9.17628906 -631.44775391 8.75195312 C-609.61018695 -8.80257335 -586.46724465 -24.35341687 -562 -38 C-561.04416016 -38.53737793 -560.08832031 -39.07475586 -559.10351562 -39.62841797 C-509.03169395 -67.66383889 -454.74573702 -86.35743861 -398.30078125 -96.41113281 C-395.56130316 -96.89986219 -392.82741342 -97.40982416 -390.09375 -97.9296875 C-385.41418659 -98.78560223 -380.72214937 -99.42821573 -376 -100 C-374.90107422 -100.13535156 -373.80214844 -100.27070312 -372.66992188 -100.41015625 C-276.98944431 -111.57204065 -181.09386235 -95.99878692 0 0 Z " fill="#0D47A1" transform="translate(822,103)"/>
<path d="M0 0 C114.57132428 0 114.57132428 0 129.9375 7.75 C130.99130859 8.26651123 130.99130859 8.26651123 132.06640625 8.79345703 C138.02472369 11.81521442 143.16266622 15.36924275 148 20 C148.76570312 20.71414063 149.53140625 21.42828125 150.3203125 22.1640625 C155.01067776 26.91802593 158.35600007 31.96905504 161.375 37.875 C161.69678223 38.49826172 162.01856445 39.12152344 162.35009766 39.76367188 C167.19553873 49.81841051 168.56206121 60.12469229 168.5 71.1875 C168.49500488 72.36570312 168.49000977 73.54390625 168.48486328 74.7578125 C168.10903328 93.68927671 161.70804381 109.67906042 148 123 C130.4980989 138.75171099 107.25548211 142.36003887 84.515625 142.1953125 C83.13785973 142.19236291 81.76009219 142.19032813 80.38232422 142.18920898 C75.33818142 142.17882778 70.29408696 142.15090591 65.25 142.125 C53.9475 142.08375 42.645 142.0425 31 142 C31 172.36 31 202.72 31 234 C20.77 234 10.54 234 0 234 C0 156.78 0 79.56 0 0 Z " fill="#FDFDFE" transform="translate(182,251)"/>
<path d="M0 0 C0.88558594 0.47308594 1.77117187 0.94617188 2.68359375 1.43359375 C12.1857026 7.85913447 18.55873372 20.01430173 21 31 C21.89328834 36.98219421 22.15056672 42.7910186 22.15771484 48.83398438 C22.16279556 49.78480896 22.16787628 50.73563354 22.17311096 51.715271 C22.18376266 53.76896768 22.19240295 55.82267559 22.19923019 57.87638855 C22.21111002 61.14116266 22.23058769 64.40580982 22.25234985 67.67053223 C22.31364596 76.94958181 22.36783613 86.22861761 22.40136719 95.5078125 C22.42247129 101.19708845 22.45789925 106.88613052 22.50212479 112.57527161 C22.51616141 114.72790246 22.5249789 116.88057466 22.52817917 119.0332489 C22.55066335 132.71416 23.16361453 145.49065071 27.09970093 158.68688965 C28 162 28 162 28 166 C17.77 166 7.54 166 -3 166 C-4.91060547 160.26818358 -6.62019877 154.83762057 -8 149 C-8.556875 149.51949219 -9.11375 150.03898438 -9.6875 150.57421875 C-25.24623735 164.7925919 -43.18380766 169.6528668 -64.01953125 169.18359375 C-80.77869847 168.41059978 -93.33599414 161.11852094 -104.8125 149.1875 C-113.25023901 139.52516878 -115.19969646 129.82332878 -115.3125 117.4375 C-115.34150391 116.40302734 -115.37050781 115.36855469 -115.40039062 114.30273438 C-115.50479315 101.47728522 -110.62202936 90.24602828 -101.96875 80.77734375 C-92.65833631 72.02353087 -82.18560032 67.339171 -70 64 C-69.09765625 63.65839844 -68.1953125 63.31679688 -67.265625 62.96484375 C-62.75066115 61.63087716 -58.30671541 61.25424075 -53.625 60.875 C-52.60728516 60.79008301 -51.58957031 60.70516602 -50.54101562 60.61767578 C-36.38637734 59.57144508 -22.18231644 59.82393992 -8 60 C-8.08194222 56.51994552 -8.19468049 53.04150999 -8.3125 49.5625 C-8.33505859 48.58861328 -8.35761719 47.61472656 -8.38085938 46.61132812 C-8.71217077 37.60568198 -10.35350582 28.58349424 -17 22 C-25.84280739 15.58231035 -33.46742863 13.63887718 -44.25 13.625 C-45.23613281 13.60050781 -46.22226562 13.57601563 -47.23828125 13.55078125 C-58.03872228 13.50809176 -66.52612943 17.17778069 -74.625 24.3125 C-79.03063676 29.29782581 -80.87705292 33.26231749 -82 40 C-91.9 40 -101.8 40 -112 40 C-112 26.83851601 -106.14862964 17.37051056 -97.375 7.875 C-71.21021319 -17.12802987 -30.02984777 -16.64223966 0 0 Z " fill="#FCFDFE" transform="translate(494,319)"/>
<path d="M0 0 C8.26380725 6.66296501 14.49345817 14.49262982 19.5 23.8125 C19.86738281 24.47894531 20.23476563 25.14539063 20.61328125 25.83203125 C22.53566117 29.47638855 24.16052789 33.23686019 25.6875 37.0625 C26.01105469 37.87203125 26.33460938 38.6815625 26.66796875 39.515625 C27.92458755 44.49490324 28.07352849 49.69484188 28.5 54.8125 C18.6 54.8125 8.7 54.8125 -1.5 54.8125 C-2.345625 52.255 -3.19125 49.6975 -4.0625 47.0625 C-9.70089563 30.80634635 -16.92581722 21.6098644 -31.9609375 13.29296875 C-40.03798732 9.91415872 -48.20377966 9.44937147 -56.875 9.5 C-57.88796143 9.50563965 -58.90092285 9.5112793 -59.94458008 9.51708984 C-74.77696767 9.75803414 -88.43925866 13.99521883 -99.40625 24.42578125 C-103.51999882 29.11514791 -106.55973883 34.33262864 -109.5 39.8125 C-109.97308594 40.67875 -110.44617188 41.545 -110.93359375 42.4375 C-119.66368901 60.71358728 -119.9643848 80.93860682 -119.9375 100.75 C-119.93763092 101.75406891 -119.93776184 102.75813782 -119.93789673 103.79263306 C-119.976327 129.33455306 -119.976327 129.33455306 -113.5 153.8125 C-113.05527344 154.89144531 -112.61054688 155.97039062 -112.15234375 157.08203125 C-109.00928108 164.28174013 -105.30410106 170.60446073 -100.5 176.8125 C-100.01789063 177.45960938 -99.53578125 178.10671875 -99.0390625 178.7734375 C-90.77218771 189.23263267 -76.52807509 196.04528477 -63.5 197.8125 C-43.72237107 199.19513059 -22.10192879 198.00054011 -6.0234375 185.14453125 C-3.23257178 182.87268668 -3.23257178 182.87268668 -2.2215271 179.55990601 C-2.20820343 178.62280792 -2.19487976 177.68570984 -2.18115234 176.72021484 C-2.16109131 175.64441162 -2.14103027 174.5686084 -2.12036133 173.46020508 C-2.10332153 171.75900513 -2.10332153 171.75900513 -2.0859375 170.0234375 C-2.05947144 168.46363159 -2.05947144 168.46363159 -2.0324707 166.87231445 C-1.96927229 162.97753533 -1.92317655 159.0824939 -1.875 155.1875 C-1.75125 146.48375 -1.6275 137.78 -1.5 128.8125 C-19.32 128.8125 -37.14 128.8125 -55.5 128.8125 C-55.5 120.5625 -55.5 112.3125 -55.5 103.8125 C-27.78 103.8125 -0.06 103.8125 28.5 103.8125 C28.78076167 125.4534309 28.78076167 125.4534309 28.84179688 134.703125 C28.8835866 141.00628079 28.93293465 147.30872243 29.02807617 153.61132812 C29.10433066 158.69478662 29.14603126 163.77747901 29.1641407 168.86146545 C29.17704 170.79757239 29.20223042 172.73363902 29.2401104 174.66941833 C29.56096852 191.7510084 29.56096852 191.7510084 25.09936523 196.92602539 C23.22923279 198.5504303 23.22923279 198.5504303 21.5 199.8125 C20.74976563 200.54339844 19.99953125 201.27429688 19.2265625 202.02734375 C14.11736345 206.2153675 8.74508114 209.51810277 2.9375 212.625 C2.24156738 212.99810303 1.54563477 213.37120605 0.82861328 213.75561523 C-6.26834197 217.42390078 -13.56740683 219.76575652 -21.375 221.4375 C-22.46554687 221.67726563 -23.55609375 221.91703125 -24.6796875 222.1640625 C-53.65107735 227.08149677 -83.93628931 225.2649808 -108.91015625 208.61328125 C-123.75084687 197.86269247 -134.05830343 184.48539202 -141.5 167.8125 C-142.14388672 166.42804688 -142.14388672 166.42804688 -142.80078125 165.015625 C-150.81187142 146.26520961 -152.28715042 126.20877635 -152.04199219 106.06494141 C-151.99978643 102.41905128 -152.00098186 98.77500254 -152.0078125 95.12890625 C-151.96348817 78.48261993 -150.75689633 62.60865209 -145.8125 46.625 C-145.43230713 45.38375366 -145.43230713 45.38375366 -145.04443359 44.11743164 C-137.8971324 21.88876756 -123.23325123 3.22817885 -102.53515625 -7.76171875 C-94.09576516 -11.70325765 -85.58284229 -14.47414057 -76.375 -15.875 C-75.5495166 -16.00092529 -74.7240332 -16.12685059 -73.87353516 -16.2565918 C-48.46829221 -19.8778564 -20.95474907 -15.42703078 0 0 Z " fill="#FCFDFE" transform="translate(383.5,597.1875)"/>
<path d="M0 0 C15.83289572 13.06071001 23.34725286 31.74327005 26.1875 51.625 C26.1875 62.515 26.1875 73.405 26.1875 84.625 C-12.4225 84.625 -51.0325 84.625 -90.8125 84.625 C-89.26249731 101.67502956 -84.4060065 119.95204396 -70.8125 131.625 C-58.47950362 140.65986931 -43.89438851 143.24193197 -28.8125 141.625 C-16.11162491 138.6869345 -5.55413521 132.16739569 3.1875 122.625 C4.51608842 121.28693858 5.84839474 119.95253631 7.1875 118.625 C9.81399853 120.74815324 12.43843774 122.87383673 15.0625 125 C15.80886719 125.60328125 16.55523438 126.2065625 17.32421875 126.828125 C18.03964844 127.40820312 18.75507812 127.98828125 19.4921875 128.5859375 C20.15202637 129.12009277 20.81186523 129.65424805 21.49169922 130.20458984 C23.1875 131.625 23.1875 131.625 25.1875 133.625 C17.00728729 144.14517899 8.89611244 152.19296619 -2.8125 158.625 C-3.410625 158.99367188 -4.00875 159.36234375 -4.625 159.7421875 C-21.59022679 169.51234043 -46.17092862 169.09219458 -64.609375 164.5859375 C-83.86200759 158.81014772 -99.96431769 146.37110017 -110.06640625 128.890625 C-118.85714323 112.44978359 -121.18054023 96.26479795 -121.25 77.875 C-121.2561734 77.18234039 -121.2623468 76.48968079 -121.26870728 75.77603149 C-121.34366668 62.68912613 -119.55248479 50.16770331 -115 37.8125 C-114.74138184 37.1002124 -114.48276367 36.3879248 -114.21630859 35.65405273 C-107.66151694 18.20306139 -94.87297613 3.85075104 -78.8125 -5.375 C-77.9978125 -5.85066406 -77.183125 -6.32632813 -76.34375 -6.81640625 C-53.00537555 -19.50854171 -20.96315945 -15.49297474 0 0 Z " fill="#FDFDFE" transform="translate(572.8125,654.375)"/>
<path d="M0 0 C12.47671698 9.92124483 18.09137248 23.9684012 20 39.375 C20.62987856 48.65094012 20.48303705 57.9571976 20.40557575 67.24894381 C20.38021014 70.81627011 20.3781929 74.3836167 20.37347412 77.95101929 C20.36114584 84.67603969 20.32846515 91.40079341 20.28807616 98.12569749 C20.24303816 105.79461305 20.22129175 113.46354277 20.20129442 121.13255811 C20.15972059 136.88021852 20.08649907 152.62751252 20 168.375 C10.43 168.375 0.86 168.375 -9 168.375 C-9.029729 163.069823 -9.029729 163.069823 -9.06005859 157.6574707 C-9.12712901 145.93876505 -9.20466929 134.22014135 -9.28752708 122.50153828 C-9.33748356 115.40037973 -9.3839272 108.29923176 -9.421875 101.19799805 C-9.45498939 95.00296201 -9.49492519 88.80801235 -9.54279006 82.6130721 C-9.56786358 79.33798311 -9.5886811 76.06296001 -9.60334396 72.78780556 C-9.62036018 69.11663249 -9.64943116 65.4457298 -9.68115234 61.7746582 C-9.68331253 60.70865891 -9.68547272 59.64265961 -9.68769836 58.5443573 C-9.81766029 46.67965965 -10.47878831 35.15820294 -18.1875 25.6875 C-28.99723422 16.79949631 -40.49231378 16.25925087 -54 17.375 C-57.71301591 18.21224869 -60.72110475 19.46592677 -64 21.375 C-64.71285156 21.77203125 -65.42570313 22.1690625 -66.16015625 22.578125 C-74.93658681 27.76196062 -81.39220714 34.15941429 -86 43.375 C-86.10468239 45.03453568 -86.14655551 46.69819929 -86.15821838 48.36099243 C-86.1680072 49.41551102 -86.17779602 50.4700296 -86.18788147 51.5565033 C-86.19363693 52.71815506 -86.1993924 53.87980682 -86.20532227 55.07666016 C-86.22017166 56.90589272 -86.22017166 56.90589272 -86.23532104 58.77207947 C-86.2615435 62.12102261 -86.28339119 65.46994146 -86.30332303 68.81892443 C-86.325167 72.31700253 -86.35256345 75.81503695 -86.37937927 79.31307983 C-86.4293277 85.93931683 -86.47425853 92.56557804 -86.51740164 99.19186246 C-86.56675566 106.73472035 -86.62168058 114.27753441 -86.67708123 121.82034993 C-86.79093428 137.33852771 -86.89703057 152.85674561 -87 168.375 C-96.9 168.375 -106.8 168.375 -117 168.375 C-117 110.955 -117 53.535 -117 -5.625 C-107.43 -5.625 -97.86 -5.625 -88 -5.625 C-87.67 1.305 -87.34 8.235 -87 15.375 C-86.030625 14.199375 -85.06125 13.02375 -84.0625 11.8125 C-63.7875951 -11.12802985 -25.90871838 -17.1314791 0 0 Z " fill="#FDFDFE" transform="translate(751,649.625)"/>
<path d="M0 0 C1.83691406 -0.01836914 1.83691406 -0.01836914 3.7109375 -0.03710938 C10.81580232 -0.04851976 17.36165374 0.43109965 24.25 2.1875 C25.10416504 2.39930908 25.95833008 2.61111816 26.83837891 2.8293457 C41.10662011 6.52319198 53.17774383 15.60180284 61.3125 27.8125 C66.51032332 36.75376786 67.35501979 43.44773749 68.25 54.1875 C58.35 54.1875 48.45 54.1875 38.25 54.1875 C37.26 50.2275 37.26 50.2275 36.25 46.1875 C33.44613056 38.06738306 27.69397274 32.82500799 20.1875 28.875 C9.79784755 23.8506823 -3.91105803 23.12714135 -14.875 26.8125 C-21.81957807 29.86342063 -28.0381124 33.65801193 -31.125 40.8515625 C-32.76559359 46.98328104 -32.76101696 53.63154357 -30.375 59.5625 C-24.10660037 70.00262766 -8.75524666 72.42659792 2.23828125 75.2109375 C4.21501658 75.70261651 6.19300345 76.18884624 8.17163086 76.67285156 C29.32004039 81.86638262 51.65156779 88.18800682 64.55859375 107.10546875 C70.60900698 117.14516543 71.01201617 129.93531325 68.84716797 141.30273438 C65.2414859 154.58719149 55.77436005 164.48363288 44.18286133 171.39257812 C24.82958684 182.20474557 -1.42281565 184.07463985 -22.625 178.1875 C-38.04714213 173.35303373 -53.44573963 164.5141135 -61.75 150.1875 C-66.17918301 140.92269131 -68.75 133.72393095 -68.75 123.1875 C-58.85 123.1875 -48.95 123.1875 -38.75 123.1875 C-38.0075 126.6215625 -38.0075 126.6215625 -37.25 130.125 C-35.11143895 138.6443214 -31.45278611 143.98294663 -24.1015625 148.9921875 C-11.41788985 156.41764292 3.97125142 157.01978698 18.25 154.1875 C25.90302683 151.17209292 32.59289114 147.72672764 36.84375 140.46484375 C39.41047092 134.48295804 39.44489709 127.14348698 37.55859375 120.8984375 C32.8287599 111.9137322 22.5828833 107.47065083 13.31784058 104.58590698 C9.268981 103.47741434 5.17831344 102.55779014 1.07846069 101.65939331 C-2.5714401 100.85491158 -6.20783374 99.99410511 -9.84375 99.12890625 C-10.89566277 98.87869469 -10.89566277 98.87869469 -11.96882629 98.62342834 C-28.65237224 94.59653708 -48.21919868 87.36561863 -57.66796875 72.0859375 C-63.11315755 61.4542387 -65.39442152 48.88881725 -61.65625 37.20703125 C-54.77557611 20.4262388 -42.5264703 10.0175425 -26.0546875 3.046875 C-17.45418712 0.07314267 -9.02012315 0.00468821 0 0 Z " fill="#FCFCFD" transform="translate(794.75,307.8125)"/>
<path d="M0 0 C9.23841691 7.74944129 16.21964223 16.81606891 19.1875 28.6875 C19.1875 32.6475 19.1875 36.6075 19.1875 40.6875 C9.6175 40.6875 0.0475 40.6875 -9.8125 40.6875 C-10.8025 37.0575 -11.7925 33.4275 -12.8125 29.6875 C-16.59585358 22.41182003 -22.57630313 18.20415643 -29.8125 14.6875 C-30.47507812 14.3471875 -31.13765625 14.006875 -31.8203125 13.65625 C-40.96343636 9.78386813 -53.81343616 10.23200253 -63.0625 13.4375 C-69.77773543 16.37413201 -74.4560122 19.83735924 -78.8125 25.6875 C-80.86467776 31.84403329 -81.30637114 40.70731791 -78.4375 46.6875 C-68.12626779 58.47176539 -50.28837436 60.70645294 -35.73046875 64.11206055 C-15.56976927 68.85086903 4.20623439 76.53138886 16.609375 93.83203125 C20.44961885 100.78059129 21.67814191 107.311001 21.5625 115.1875 C21.57410156 115.97769531 21.58570313 116.76789063 21.59765625 117.58203125 C21.54173005 128.97233373 16.75964841 139.5103013 9.08984375 147.8125 C0.32568353 156.45068666 -10.92646076 161.80816405 -22.8125 164.6875 C-23.40869141 164.85523926 -24.00488281 165.02297852 -24.61914062 165.19580078 C-40.4995066 169.30545146 -60.51675905 168.61532845 -75.8125 162.6875 C-76.85792969 162.32527344 -77.90335938 161.96304688 -78.98046875 161.58984375 C-86.49754789 158.7792755 -92.62747455 154.76361826 -98.8125 149.6875 C-99.53308594 149.11644531 -100.25367188 148.54539062 -100.99609375 147.95703125 C-109.06471319 140.83210999 -114.55058015 129.11746375 -116.8125 118.6875 C-116.8125 115.7175 -116.8125 112.7475 -116.8125 109.6875 C-106.9125 109.6875 -97.0125 109.6875 -86.8125 109.6875 C-86.1525 112.9875 -85.4925 116.2875 -84.8125 119.6875 C-82.51728585 126.92090217 -76.96724793 132.72402551 -70.5 136.5625 C-57.31018791 143.02327236 -41.52844149 143.87876851 -27.43359375 139.734375 C-20.23477086 136.85913724 -14.11838359 132.54067738 -10.73046875 125.41015625 C-9.70010487 122.35414084 -9.54607644 119.90651687 -9.5625 116.6875 C-9.55734375 115.676875 -9.5521875 114.66625 -9.546875 113.625 C-10.06175016 107.93108652 -12.52584329 103.44671573 -16.8125 99.6875 C-29.00485833 91.36748778 -45.59074985 88.15090429 -59.8125 85.125 C-76.08761157 81.54924313 -92.60219496 74.33766073 -103.8125 61.6875 C-105.84854975 58.47293675 -107.40941657 55.2185933 -108.8125 51.6875 C-109.17601562 50.95273437 -109.53953125 50.21796875 -109.9140625 49.4609375 C-112.83371223 40.44810573 -111.9875245 27.75340063 -108.203125 19.171875 C-99.75323186 4.07599849 -86.56861039 -6.69407563 -69.97265625 -11.83984375 C-46.70792343 -16.93031874 -19.53753176 -14.40309508 0 0 Z " fill="#FCFDFD" transform="translate(672.8125,321.3125)"/>
<path d="M0 0 C16.70625 -0.12375 16.70625 -0.12375 33.75 -0.25 C38.98955566 -0.30462402 38.98955566 -0.30462402 44.33496094 -0.36035156 C48.66064453 -0.37841797 48.66064453 -0.37841797 50.69732666 -0.3817749 C52.09435145 -0.38784437 53.49135772 -0.40175805 54.88824463 -0.42230225 C69.43284043 -0.62517795 83.3683787 2.46074428 94.53125 12.4453125 C104.95729571 23.4813928 107.61921738 35.1428378 107.47070312 49.91381836 C107.0963684 61.52715508 104.23680378 70.56188941 96 79 C83.07294978 90.57994278 67.90437742 92.48513358 51.07421875 92.29296875 C49.77021118 92.28994751 48.46620361 92.28692627 47.12268066 92.28381348 C42.31087178 92.26826847 37.49917686 92.22638618 32.6875 92.1875 C21.900625 92.125625 11.11375 92.06375 0 92 C0 61.64 0 31.28 0 0 Z " fill="#0F48A1" transform="translate(212,276)"/>
<path d="M0 0 C1.785155 0.0050245 3.57031136 0.00958572 5.35546875 0.01367188 C9.6953467 0.02460349 14.03515802 0.0418159 18.375 0.0625 C18.52442403 5.0245271 18.63271383 9.98521734 18.70458984 14.94897461 C18.73458059 16.63377726 18.7753887 18.3184262 18.82763672 20.00268555 C19.33821783 36.89691337 19.33821783 36.89691337 14.02832031 43.38623047 C13.20992676 44.21598389 13.20992676 44.21598389 12.375 45.0625 C11.75294678 45.70985107 11.13089355 46.35720215 10.48999023 47.02416992 C5.3046694 52.16729227 -1.00922121 55.14377406 -7.625 58.0625 C-8.34171875 58.40539062 -9.0584375 58.74828125 -9.796875 59.1015625 C-18.98469359 62.9120144 -32.16962617 62.47968899 -41.484375 59.10546875 C-48.32939673 55.7703943 -54.73303148 50.56846037 -57.73046875 43.4296875 C-59.69851237 36.02159317 -60.07143664 26.7247353 -57.78515625 19.35546875 C-56.57418058 17.28824766 -55.32170834 15.75095186 -53.625 14.0625 C-53.04363281 13.44246094 -52.46226562 12.82242187 -51.86328125 12.18359375 C-47.03670542 7.49408092 -41.94198172 5.18243624 -35.625 3.0625 C-34.635 2.670625 -33.645 2.27875 -32.625 1.875 C-22.15351439 -0.96102735 -10.75758372 -0.05282119 0 0 Z " fill="#0E47A1" transform="translate(467.625,400.9375)"/>
<path d="M0 0 C0.80099121 0.00563965 1.60198242 0.0112793 2.42724609 0.01708984 C12.45527757 0.22341113 18.48722999 2.98606671 26.1875 9.3125 C27.05375 9.89 27.92 10.4675 28.8125 11.0625 C36.99416944 18.81355526 41.33712638 31.25764298 42.1875 42.3125 C42.1875 44.9525 42.1875 47.5925 42.1875 50.3125 C13.4775 50.3125 -15.2325 50.3125 -44.8125 50.3125 C-43.17456217 32.29518386 -36.75870286 18.09984793 -22.8125 6.3125 C-20.23304642 4.62628476 -17.70522783 3.36025969 -14.8125 2.3125 C-13.92691406 1.95800781 -13.04132812 1.60351562 -12.12890625 1.23828125 C-8.00621336 0.08742352 -4.25919818 -0.03108904 0 0 Z " fill="#0E48A1" transform="translate(527.8125,664.6875)"/>
</svg>
